<mxfile host="app.diagrams.net" modified="2023-12-19T02:24:38.001Z" agent="Mozilla/5.0 (Windows NT 10.0; Win64; x64; rv:120.0) Gecko/20100101 Firefox/120.0" etag="yyMMC7DBkrgk8qPP9EwN" version="21.6.5" type="github">
  <diagram name="Page-1" id="O3sQxSkAA--FD9c4pEWH">
    <mxGraphModel dx="1615" dy="786" grid="0" gridSize="10" guides="1" tooltips="1" connect="1" arrows="1" fold="1" page="1" pageScale="1" pageWidth="850" pageHeight="1100" math="0" shadow="0">
      <root>
        <mxCell id="0" />
        <mxCell id="1" parent="0" />
        <mxCell id="fYbkMAJPIWZWRn2vRfrh-1" value="" style="rounded=0;whiteSpace=wrap;html=1;" vertex="1" parent="1">
          <mxGeometry x="117" y="95" width="594" height="820" as="geometry" />
        </mxCell>
      </root>
    </mxGraphModel>
  </diagram>
</mxfile>
